<mxfile host="app.diagrams.net" modified="2023-09-27T15:01:57.842Z" agent="Mozilla/5.0 (Windows NT 10.0; Win64; x64; rv:109.0) Gecko/20100101 Firefox/118.0" etag="sa1gO6CVo-VmppFOkKL8" version="21.8.2" type="device">
  <diagram name="Страница — 1" id="dAZK7Hoo2avscr_EccQb">
    <mxGraphModel dx="1195" dy="622" grid="1" gridSize="10" guides="1" tooltips="1" connect="1" arrows="1" fold="1" page="1" pageScale="1" pageWidth="827" pageHeight="1169" math="0" shadow="0">
      <root>
        <mxCell id="0" />
        <mxCell id="1" parent="0" />
        <mxCell id="mJwbFRkjr3ulootCz2wJ-2" value="Пользователь" style="shape=umlActor;verticalLabelPosition=bottom;verticalAlign=top;html=1;outlineConnect=0;" vertex="1" parent="1">
          <mxGeometry x="120" y="250" width="30" height="60" as="geometry" />
        </mxCell>
        <mxCell id="mJwbFRkjr3ulootCz2wJ-3" value="Создать акк" style="ellipse;whiteSpace=wrap;html=1;" vertex="1" parent="1">
          <mxGeometry x="260" y="150" width="120" height="80" as="geometry" />
        </mxCell>
        <mxCell id="mJwbFRkjr3ulootCz2wJ-4" value="Проверка логина и пароля" style="ellipse;whiteSpace=wrap;html=1;" vertex="1" parent="1">
          <mxGeometry x="460" y="340" width="120" height="80" as="geometry" />
        </mxCell>
        <mxCell id="mJwbFRkjr3ulootCz2wJ-5" value="Вход" style="ellipse;whiteSpace=wrap;html=1;" vertex="1" parent="1">
          <mxGeometry x="260" y="330" width="120" height="80" as="geometry" />
        </mxCell>
        <mxCell id="mJwbFRkjr3ulootCz2wJ-6" value="Доступ к системе" style="ellipse;whiteSpace=wrap;html=1;" vertex="1" parent="1">
          <mxGeometry x="650" y="340" width="120" height="80" as="geometry" />
        </mxCell>
        <mxCell id="mJwbFRkjr3ulootCz2wJ-7" value="Создание акк." style="ellipse;whiteSpace=wrap;html=1;fontStyle=1" vertex="1" parent="1">
          <mxGeometry x="530" y="220" width="120" height="80" as="geometry" />
        </mxCell>
        <mxCell id="mJwbFRkjr3ulootCz2wJ-8" value="Запрос логина и пароля" style="ellipse;whiteSpace=wrap;html=1;" vertex="1" parent="1">
          <mxGeometry x="530" y="110" width="120" height="80" as="geometry" />
        </mxCell>
        <mxCell id="mJwbFRkjr3ulootCz2wJ-9" value="" style="endArrow=classic;html=1;rounded=0;exitX=0.5;exitY=0.5;exitDx=0;exitDy=0;exitPerimeter=0;entryX=0;entryY=0.5;entryDx=0;entryDy=0;" edge="1" parent="1" source="mJwbFRkjr3ulootCz2wJ-2" target="mJwbFRkjr3ulootCz2wJ-3">
          <mxGeometry width="50" height="50" relative="1" as="geometry">
            <mxPoint x="390" y="380" as="sourcePoint" />
            <mxPoint x="440" y="330" as="targetPoint" />
          </mxGeometry>
        </mxCell>
        <mxCell id="mJwbFRkjr3ulootCz2wJ-10" value="" style="endArrow=classic;html=1;rounded=0;exitX=0.5;exitY=0.5;exitDx=0;exitDy=0;exitPerimeter=0;entryX=0;entryY=0.5;entryDx=0;entryDy=0;" edge="1" parent="1" source="mJwbFRkjr3ulootCz2wJ-2" target="mJwbFRkjr3ulootCz2wJ-5">
          <mxGeometry width="50" height="50" relative="1" as="geometry">
            <mxPoint x="390" y="380" as="sourcePoint" />
            <mxPoint x="440" y="330" as="targetPoint" />
          </mxGeometry>
        </mxCell>
        <mxCell id="mJwbFRkjr3ulootCz2wJ-13" value="" style="endArrow=classic;html=1;rounded=0;entryX=0;entryY=0.5;entryDx=0;entryDy=0;exitX=1;exitY=0.5;exitDx=0;exitDy=0;dashed=1;" edge="1" parent="1" source="mJwbFRkjr3ulootCz2wJ-3" target="mJwbFRkjr3ulootCz2wJ-8">
          <mxGeometry width="50" height="50" relative="1" as="geometry">
            <mxPoint x="340" y="370" as="sourcePoint" />
            <mxPoint x="390" y="320" as="targetPoint" />
          </mxGeometry>
        </mxCell>
        <mxCell id="mJwbFRkjr3ulootCz2wJ-18" value="&lt;div&gt;&amp;lt;&amp;lt;include&amp;gt;&amp;gt;&lt;/div&gt;" style="edgeLabel;html=1;align=center;verticalAlign=middle;resizable=0;points=[];" vertex="1" connectable="0" parent="mJwbFRkjr3ulootCz2wJ-13">
          <mxGeometry x="-0.1006" relative="1" as="geometry">
            <mxPoint as="offset" />
          </mxGeometry>
        </mxCell>
        <mxCell id="mJwbFRkjr3ulootCz2wJ-15" value="" style="endArrow=classic;html=1;rounded=0;entryX=0;entryY=0.5;entryDx=0;entryDy=0;exitX=1;exitY=0.5;exitDx=0;exitDy=0;dashed=1;fontStyle=1" edge="1" parent="1" source="mJwbFRkjr3ulootCz2wJ-3" target="mJwbFRkjr3ulootCz2wJ-7">
          <mxGeometry width="50" height="50" relative="1" as="geometry">
            <mxPoint x="390" y="200" as="sourcePoint" />
            <mxPoint x="540" y="160" as="targetPoint" />
          </mxGeometry>
        </mxCell>
        <mxCell id="mJwbFRkjr3ulootCz2wJ-19" value="&amp;lt;&amp;lt;include&amp;gt;&amp;gt;" style="edgeLabel;html=1;align=center;verticalAlign=middle;resizable=0;points=[];" vertex="1" connectable="0" parent="mJwbFRkjr3ulootCz2wJ-15">
          <mxGeometry x="-0.0656" y="-2" relative="1" as="geometry">
            <mxPoint as="offset" />
          </mxGeometry>
        </mxCell>
        <mxCell id="mJwbFRkjr3ulootCz2wJ-16" value="" style="endArrow=classic;html=1;rounded=0;entryX=0;entryY=0.5;entryDx=0;entryDy=0;exitX=1;exitY=0.5;exitDx=0;exitDy=0;dashed=1;" edge="1" parent="1" source="mJwbFRkjr3ulootCz2wJ-5" target="mJwbFRkjr3ulootCz2wJ-4">
          <mxGeometry width="50" height="50" relative="1" as="geometry">
            <mxPoint x="390" y="200" as="sourcePoint" />
            <mxPoint x="540" y="270" as="targetPoint" />
          </mxGeometry>
        </mxCell>
        <mxCell id="mJwbFRkjr3ulootCz2wJ-20" value="&amp;lt;&amp;lt;include&amp;gt;&amp;gt;" style="edgeLabel;html=1;align=center;verticalAlign=middle;resizable=0;points=[];" vertex="1" connectable="0" parent="mJwbFRkjr3ulootCz2wJ-16">
          <mxGeometry x="-0.1036" relative="1" as="geometry">
            <mxPoint as="offset" />
          </mxGeometry>
        </mxCell>
        <mxCell id="mJwbFRkjr3ulootCz2wJ-17" value="" style="endArrow=classic;html=1;rounded=0;entryX=0;entryY=0.5;entryDx=0;entryDy=0;exitX=1;exitY=0.5;exitDx=0;exitDy=0;dashed=1;" edge="1" parent="1" source="mJwbFRkjr3ulootCz2wJ-4" target="mJwbFRkjr3ulootCz2wJ-6">
          <mxGeometry width="50" height="50" relative="1" as="geometry">
            <mxPoint x="390" y="380" as="sourcePoint" />
            <mxPoint x="470" y="390" as="targetPoint" />
          </mxGeometry>
        </mxCell>
        <mxCell id="mJwbFRkjr3ulootCz2wJ-21" value="&amp;lt;&amp;lt;include&amp;gt;&amp;gt;" style="edgeLabel;html=1;align=center;verticalAlign=middle;resizable=0;points=[];" vertex="1" connectable="0" parent="mJwbFRkjr3ulootCz2wJ-17">
          <mxGeometry x="-0.0476" y="-1" relative="1" as="geometry">
            <mxPoint as="offset" />
          </mxGeometry>
        </mxCell>
      </root>
    </mxGraphModel>
  </diagram>
</mxfile>
